<svg xmlns="http://www.w3.org/2000/svg" xmlns:xlink="http://www.w3.org/1999/xlink" viewBox="0 0 776.76 171.49"><defs><style>.cls-1{fill:url(#linear-gradient-3);}.cls-1,.cls-2,.cls-3,.cls-4{mix-blend-mode:multiply;}.cls-2{fill:url(#linear-gradient-4);}.cls-5{fill:#3c32a3;}.cls-6{fill:#42d3d8;}.cls-7{fill:#825ef6;}.cls-3{fill:url(#linear-gradient-5);}.cls-8{fill:none;isolation:isolate;}.cls-4{fill:url(#linear-gradient-2);}.cls-9{fill:#444463;}.cls-10{fill:url(#linear-gradient);}</style><linearGradient id="linear-gradient" x1="-20.68" y1="118.92" x2="278.01" y2="118.92" gradientUnits="userSpaceOnUse"><stop offset="0" stop-color="#3c32a3"></stop><stop offset=".5" stop-color="#825ef6"></stop><stop offset="1" stop-color="#42d3d8"></stop></linearGradient><linearGradient id="linear-gradient-2" x1="82.41" y1="130.63" x2="70.31" y2="142.14" gradientUnits="userSpaceOnUse"><stop offset="0" stop-color="#7f7f7f"></stop><stop offset="1" stop-color="#fff"></stop></linearGradient><linearGradient id="linear-gradient-3" x1="167.86" y1="123.14" x2="182.03" y2="136.52" xlink:href="#linear-gradient-2"></linearGradient><linearGradient id="linear-gradient-4" x1="173.22" y1="116.81" x2="161.02" y2="105.79" xlink:href="#linear-gradient-2"></linearGradient><linearGradient id="linear-gradient-5" x1="77.19" y1="122.43" x2="94.31" y2="108.45" xlink:href="#linear-gradient-2"></linearGradient></defs><g class="cls-8"><g id="Layer_2"><g id="Layer_1-2"><path class="cls-10" d="m251.87,77.14c-5.17-7.06-13.04-10.78-22.76-10.78-11.23,0-22.05,5-33.07,15.3-7.47,6.97-14.23,15.49-21.29,25.07-2.85-4.34-5.85-8.63-9.04-12.61-1.48-1.85-3-3.63-4.57-5.31-10.08-10.83-20.56-16.1-32.01-16.1s-21.93,5.27-32.02,16.1c-4.29,4.61-8.6,10.3-13.59,17.9v.02c-7.07-9.57-13.82-18.09-21.3-25.07-11.03-10.29-21.84-15.3-33.07-15.3-9.71,0-17.58,3.73-22.76,10.78-4.24,5.77-6.4,13.39-6.4,22.63,0,13.61,5.02,30.37,13.11,43.75,9.6,15.89,22.22,25,34.6,25,10.84,0,19.41-5.95,27.01-14.66,3.47-3.98,6.75-8.54,9.95-13.38,12.62,16.46,26.62,31.02,44.46,31.02s32.07-14.89,44.46-31.02c10.18,15.41,21.16,28.04,36.96,28.04,12.39,0,25-9.11,34.6-25,8.09-13.38,13.11-30.14,13.11-43.75,0-9.24-2.16-16.86-6.4-22.63Zm-189.77,62.14c-4.74,5.85-9.71,10.2-14.38,10.2-5.32,0-12.51-6.21-18.31-15.81-6.4-10.58-10.37-23.57-10.37-33.9,0-14.38,6.84-14.38,10.12-14.38,14.94,0,29.42,19.29,43.45,38.67-3.19,5.08-6.77,10.62-10.51,15.22Zm98.26-12.86c-9.71,12.87-21.01,26.03-31.22,26.03s-21.72-13.52-30.66-25.29c-.93-1.22-1.89-2.5-2.95-3.94l2.18-3.4c9.34-14.58,19.62-28.08,31.43-28.08,8.64,0,16.3,6.94,23.93,17.16,3.21,4.29,6.41,9.17,9.67,14.36l-2.38,3.16Zm68.52,7.25c-5.81,9.6-13,15.81-18.32,15.81-8.34,0-17.65-13.86-24.89-25.42,14.02-19.37,28.5-38.67,43.45-38.67,3.28,0,10.12,0,10.12,14.38,0,10.33-3.97,23.32-10.36,33.9Z"></path><path class="cls-7" d="m129.13,0c-15.65,0-28.39,12.73-28.39,28.38s12.73,28.38,28.39,28.38,28.38-12.73,28.38-28.38S144.78,0,129.13,0Zm0,37.73c-5.16,0-9.35-4.19-9.35-9.35s4.19-9.35,9.35-9.35,9.34,4.19,9.34,9.35-4.19,9.35-9.34,9.35Z"></path><path class="cls-6" d="m229.88,0c-15.65,0-28.38,12.73-28.38,28.38s12.73,28.38,28.38,28.38,28.38-12.73,28.38-28.38S245.53,0,229.88,0Zm0,37.73c-5.15,0-9.35-4.19-9.35-9.35s4.19-9.35,9.35-9.35,9.35,4.19,9.35,9.35-4.19,9.35-9.35,9.35Z"></path><path class="cls-5" d="m28.38,0C12.73,0,0,12.73,0,28.38s12.73,28.38,28.38,28.38,28.38-12.73,28.38-28.38S44.03,0,28.38,0Zm0,37.73c-5.15,0-9.35-4.19-9.35-9.35s4.19-9.35,9.35-9.35,9.35,4.19,9.35,9.35-4.19,9.35-9.35,9.35Z"></path><path class="cls-4" d="m84.67,140.47c-3.2,4.83-6.47,9.39-9.95,13.38l-12.63-14.57c3.73-4.6,7.32-10.13,10.51-15.22,0,0,9.08,12.58,12.07,16.41Z"></path><path class="cls-1" d="m173.59,140.47c3.2,4.83,6.47,9.39,9.95,13.38l12.63-14.57c-3.73-4.6-7.32-10.13-10.51-15.22,0,0-9.08,12.58-12.07,16.41Z"></path><path class="cls-2" d="m174.75,106.72l-12.01,16.53c-3.26-5.18-6.46-10.06-9.67-14.36l12.65-14.78c3.19,3.97,6.19,8.27,9.04,12.61Z"></path><path class="cls-3" d="m83.5,106.72l12.01,16.53c3.26-5.18,6.46-10.06,9.67-14.36l-12.65-14.78c-3.19,3.97-6.19,8.27-9.04,12.61Z"></path><path class="cls-9" d="m299.51,23.22h22v48.19h29.45v17.06h-51.45V23.22Z"></path><path class="cls-9" d="m423.38,71.87v16.59h-54.25V23.22h53.03v16.59h-31.41v7.64h27.59v15.85h-27.59v8.57h32.62Z"></path><path class="cls-9" d="m512.77,23.22l-27.59,65.25h-21.62l-27.59-65.25h23.67l15.57,38.12,15.94-38.12h21.62Z"></path><path class="cls-9" d="m527.03,23.22h22v65.25h-22V23.22Z"></path><path class="cls-9" d="m571.77,23.22h32.16c7.27,0,13.69,1.32,19.25,3.96,5.56,2.64,9.88,6.42,12.96,11.33,3.08,4.91,4.61,10.69,4.61,17.34s-1.54,12.43-4.61,17.34c-3.08,4.91-7.4,8.68-12.96,11.32-5.56,2.64-11.98,3.96-19.25,3.96h-32.16V23.22Zm31.22,48.1c4.72,0,8.5-1.35,11.32-4.05,2.83-2.7,4.24-6.51,4.24-11.42s-1.41-8.71-4.24-11.42c-2.83-2.7-6.6-4.05-11.32-4.05h-9.23v30.94h9.23Z"></path><path class="cls-9" d="m660.87,23.22h22v65.25h-22V23.22Z"></path><path class="cls-9" d="m720.89,85.57c-5.59-2.92-9.97-6.97-13.14-12.16-3.17-5.19-4.75-11.04-4.75-17.57s1.58-12.38,4.75-17.57c3.17-5.19,7.55-9.24,13.14-12.16,5.59-2.92,11.9-4.38,18.92-4.38s13.33,1.46,18.92,4.38c5.59,2.92,9.97,6.98,13.14,12.16,3.17,5.19,4.75,11.04,4.75,17.57s-1.58,12.38-4.75,17.57c-3.17,5.19-7.55,9.24-13.14,12.16s-11.9,4.38-18.92,4.38-13.33-1.46-18.92-4.38Zm26.33-15.43c2.2-1.34,3.96-3.23,5.27-5.69,1.3-2.45,1.96-5.33,1.96-8.62s-.65-6.17-1.96-8.62c-1.3-2.45-3.06-4.35-5.27-5.69-2.21-1.33-4.68-2-7.41-2s-5.21.67-7.41,2c-2.21,1.34-3.96,3.23-5.27,5.69-1.3,2.45-1.96,5.33-1.96,8.62s.65,6.17,1.96,8.62c1.3,2.45,3.06,4.35,5.27,5.69,2.21,1.34,4.68,2,7.41,2s5.2-.67,7.41-2Z"></path><path class="cls-9" d="m309.82,146.11c-3.14-1.64-5.61-3.94-7.39-6.89-1.78-2.95-2.68-6.3-2.68-10.04s.89-7.09,2.68-10.04c1.78-2.95,4.25-5.25,7.39-6.89,3.14-1.64,6.68-2.46,10.6-2.46,3.6,0,6.82.64,9.64,1.91,2.83,1.27,5.16,3.11,6.99,5.51l-7.9,7.05c-2.3-2.9-5-4.35-8.11-4.35-2.61,0-4.72.84-6.31,2.52-1.59,1.68-2.38,3.93-2.38,6.76s.79,5.08,2.38,6.76c1.59,1.68,3.69,2.52,6.31,2.52,3.11,0,5.81-1.45,8.11-4.35l7.9,7.05c-1.84,2.4-4.17,4.24-6.99,5.51-2.83,1.27-6.04,1.91-9.64,1.91-3.92,0-7.45-.82-10.6-2.46Z"></path><path class="cls-9" d="m365.41,141.26h-14.1l-2.49,6.46h-12.72l16.21-37.09h12.29l16.21,37.09h-12.93l-2.49-6.46Zm-3.44-9.01l-3.6-9.33-3.6,9.33h7.21Z"></path><path class="cls-9" d="m382.84,110.63h12.51v27.4h16.74v9.7h-29.25v-37.09Z"></path><path class="cls-9" d="m446.37,138.29v9.43h-30.84v-37.09h30.15v9.43h-17.86v4.35h15.68v9.01h-15.68v4.88h18.55Z"></path><path class="cls-9" d="m475.73,128.17h10.86v15.68c-2.19,1.52-4.73,2.69-7.63,3.5-2.9.81-5.74,1.22-8.53,1.22-3.96,0-7.51-.82-10.65-2.46-3.14-1.64-5.61-3.94-7.39-6.89-1.78-2.95-2.68-6.3-2.68-10.04s.89-7.09,2.68-10.04c1.78-2.95,4.27-5.25,7.47-6.89,3.2-1.64,6.81-2.46,10.84-2.46,3.64,0,6.9.61,9.78,1.83,2.88,1.22,5.27,2.99,7.18,5.33l-8,7.05c-2.33-2.72-5.1-4.08-8.32-4.08-2.76,0-4.95.83-6.57,2.49-1.63,1.66-2.44,3.92-2.44,6.78s.8,5.03,2.41,6.73c1.61,1.7,3.75,2.54,6.44,2.54,1.59,0,3.11-.3,4.56-.9v-9.38Z"></path><path class="cls-9" d="m540.91,138.18l3.5,2.97-6.41,7.26-3.92-3.39c-3.67,2.37-7.81,3.55-12.4,3.55-2.93,0-5.57-.47-7.92-1.4-2.35-.94-4.2-2.22-5.54-3.84-1.34-1.62-2.01-3.46-2.01-5.51,0-2.33.58-4.35,1.75-6.07s2.98-3.26,5.46-4.64c-2.12-2.26-3.18-4.63-3.18-7.1,0-1.98.56-3.72,1.67-5.22,1.11-1.5,2.68-2.68,4.69-3.52,2.01-.85,4.35-1.27,6.99-1.27,2.44,0,4.58.38,6.44,1.14,1.85.76,3.29,1.85,4.32,3.29,1.02,1.43,1.54,3.08,1.54,4.95s-.52,3.54-1.56,5.01c-1.04,1.47-2.66,2.82-4.85,4.05l3.92,3.34c.64-1.41,1.11-3.02,1.43-4.82l9.59,2.86c-.71,3.11-1.87,5.9-3.5,8.37Zm-14.15.58l-6.78-5.83c-1.38.99-2.07,2.17-2.07,3.55,0,.92.41,1.68,1.25,2.28.83.6,1.97.9,3.42.9s2.81-.3,4.19-.9Zm-5.01-20.45c-.44.39-.66.9-.66,1.54,0,.46.13.9.4,1.32s.75.97,1.46,1.64c1.94-1.06,2.91-2.12,2.91-3.18,0-.57-.19-1.02-.58-1.38-.39-.35-.94-.53-1.64-.53-.81,0-1.44.19-1.88.58Z"></path><path class="cls-9" d="m591.72,112.33c2.54,1.13,4.5,2.76,5.88,4.88s2.07,4.59,2.07,7.42-.69,5.3-2.07,7.42c-1.38,2.12-3.34,3.75-5.88,4.88-2.54,1.13-5.53,1.7-8.95,1.7h-5.35v9.11h-12.51v-37.09h17.86c3.43,0,6.41.57,8.95,1.7Zm-5.94,15.5c.85-.76,1.27-1.83,1.27-3.21s-.42-2.45-1.27-3.21c-.85-.76-2.12-1.14-3.81-1.14h-4.56v8.69h4.56c1.7,0,2.97-.38,3.81-1.14Z"></path><path class="cls-9" d="m634.59,138.29v9.43h-30.84v-37.09h30.15v9.43h-17.86v4.35h15.68v9.01h-15.68v4.88h18.55Z"></path><path class="cls-9" d="m672.53,147.72l-.11-16.9-8.05,13.56h-5.51l-8.05-12.98v16.32h-11.39v-37.09h10.28l12.08,19.77,11.76-19.77h10.28l.11,37.09h-11.39Z"></path><path class="cls-9" d="m689.96,110.63h12.51v37.09h-12.51v-37.09Z"></path><path class="cls-9" d="m708.51,110.63h12.51v27.4h16.74v9.7h-29.25v-37.09Z"></path><path class="cls-9" d="m745.39,143.96c-3.18-3.07-4.77-7.38-4.77-12.93v-20.4h12.51v20.03c0,2.72.49,4.7,1.46,5.93.97,1.24,2.38,1.85,4.21,1.85s3.24-.62,4.21-1.85c.97-1.24,1.46-3.21,1.46-5.93v-20.03h12.29v20.4c0,5.55-1.59,9.86-4.77,12.93-3.18,3.07-7.61,4.61-13.3,4.61s-10.12-1.54-13.3-4.61Z"></path></g></g></g></svg>